<mxfile host="app.diagrams.net" modified="2023-04-10T10:45:53.430Z" agent="Mozilla/5.0 (Macintosh; Intel Mac OS X 10_15_7) AppleWebKit/537.36 (KHTML, like Gecko) Chrome/111.0.0.0 Safari/537.36" version="21.1.5" etag="V7EFKLd5xEsafTWSXL6s" type="github">
  <diagram name="Страница 1" id="vbKo55KCLVgiNkvqY8Yo">
    <mxGraphModel>
      <root>
        <mxCell id="0" />
        <mxCell id="1" parent="0" />
      </root>
    </mxGraphModel>
  </diagram>
</mxfile>
